<!DOCTYPE svg PUBLIC "-//W3C//DTD SVG 1.1//EN" "http://www.w3.org/Graphics/SVG/1.1/DTD/svg11.dtd">
<!-- Uploaded to: SVG Repo, www.svgrepo.com, Transformed by: SVG Repo Mixer Tools -->
<svg fill="#400040" height="256px" width="256px" version="1.1" id="Layer_1" xmlns="http://www.w3.org/2000/svg" xmlns:xlink="http://www.w3.org/1999/xlink" viewBox="0 0 512.00 512.00" xml:space="preserve" stroke="#400040" stroke-width="51.2">
<g id="SVGRepo_bgCarrier" stroke-width="0"/>
<g id="SVGRepo_tracerCarrier" stroke-linecap="round" stroke-linejoin="round"/>
<g id="SVGRepo_iconCarrier"> <g> <g> <path d="M20,68H4c-2.208,0-4,1.788-4,4v368c0,2.212,1.792,4,4,4h16c2.208,0,4-1.788,4-4V72C24,69.788,22.208,68,20,68z M16,436H8 V76h8V436z"/> </g> </g> <g> <g> <path d="M508,68h-16c-2.208,0-4,1.788-4,4v368c0,2.212,1.792,4,4,4h16c2.208,0,4-1.788,4-4V72C512,69.788,510.208,68,508,68z M504,436h-8V76h8V436z"/> </g> </g> <g> <g> <path d="M240,368H20c-2.208,0-4,1.788-4,4c0,2.212,1.792,4,4,4h220c2.208,0,4-1.788,4-4C244,369.788,242.208,368,240,368z"/> </g> </g> <g> <g> <path d="M492,384H20c-2.208,0-4,1.788-4,4c0,2.212,1.792,4,4,4h472c2.208,0,4-1.788,4-4C496,385.788,494.208,384,492,384z"/> </g> </g> <g> <g> <path d="M492,368H272c-2.208,0-4,1.788-4,4c0,2.212,1.792,4,4,4h220c2.208,0,4-1.788,4-4C496,369.788,494.208,368,492,368z"/> </g> </g> <g> <g> <path d="M492,160h-52c-2.208,0-4,1.788-4,4c0,2.212,1.792,4,4,4h52c2.208,0,4-1.788,4-4C496,161.788,494.208,160,492,160z"/> </g> </g> <g> <g> <path d="M412,160H20c-2.208,0-4,1.788-4,4c0,2.212,1.792,4,4,4h392c2.208,0,4-1.788,4-4C416,161.788,414.208,160,412,160z"/> </g> </g> <g> <g> <path d="M492,176H20c-2.208,0-4,1.788-4,4c0,2.212,1.792,4,4,4h472c2.208,0,4-1.788,4-4C496,177.788,494.208,176,492,176z"/> </g> </g> <g> <g> <path d="M492,128H20c-2.208,0-4,1.788-4,4c0,2.212,1.792,4,4,4h472c2.208,0,4-1.788,4-4C496,129.788,494.208,128,492,128z"/> </g> </g> <g> <g> <path d="M492,336H20c-2.208,0-4,1.788-4,4c0,2.212,1.792,4,4,4h472c2.208,0,4-1.788,4-4C496,337.788,494.208,336,492,336z"/> </g> </g> <g> <g> <path d="M140,304H56c-2.208,0-4,1.788-4,4c0,2.212,1.792,4,4,4h84c2.208,0,4-1.788,4-4C144,305.788,142.208,304,140,304z"/> </g> </g> <g> <g> <path d="M140,272H56c-2.208,0-4,1.788-4,4c0,2.212,1.792,4,4,4h84c2.208,0,4-1.788,4-4C144,273.788,142.208,272,140,272z"/> </g> </g> <g> <g> <path d="M140,240H56c-2.208,0-4,1.788-4,4c0,2.212,1.792,4,4,4h84c2.208,0,4-1.788,4-4C144,241.788,142.208,240,140,240z"/> </g> </g> <g> <g> <path d="M140,208H56c-2.208,0-4,1.788-4,4c0,2.212,1.792,4,4,4h84c2.208,0,4-1.788,4-4C144,209.788,142.208,208,140,208z"/> </g> </g> <g> <g> <path d="M56,180c-2.208,0-4,1.788-4,4v188c0,2.212,1.792,4,4,4s4-1.788,4-4V184C60,181.788,58.208,180,56,180z"/> </g> </g> <g> <g> <path d="M140,180c-2.208,0-4,1.788-4,4v188c0,2.212,1.792,4,4,4s4-1.788,4-4V184C144,181.788,142.208,180,140,180z"/> </g> </g> <g> <g> <path d="M492,92c-120.488,0-127.568,35.544-127.98,39.596c-0.216,2.152,1.328,4.032,3.476,4.312c0.168,0.02,0.332,0.032,0.5,0.032 c1.948,0,3.66-1.46,3.972-3.428C372.016,132.188,378.428,100,492,100c2.208,0,4-1.788,4-4S494.208,92,492,92z"/> </g> </g> <g> <g> <path d="M492,300c-120.488,0-127.568,35.544-127.98,39.596c-0.216,2.152,1.328,4.032,3.476,4.312 c0.168,0.02,0.332,0.032,0.5,0.032c1.948,0,3.66-1.46,3.972-3.428C372.016,340.188,378.428,308,492,308c2.208,0,4-1.788,4-4 C496,301.788,494.208,300,492,300z"/> </g> </g> </g>
</svg>